<svg width="202" height="296" viewBox="0 0 202 296" fill="none" xmlns="http://www.w3.org/2000/svg">
<path d="M54 71.5H52.5V73V93V94.5H54H154H155.5V93V73V71.5H154H54ZM54 111.5H52.5V113V133V134.5H54H104H105.5V133V113V111.5H104H54Z" fill="white" stroke="#393939" stroke-width="3"/>
<path d="M62.5 21.5H34C22.1416 21.5 12.5 31.1416 12.5 43V183C12.5 194.858 22.1416 204.5 34 204.5H174C185.858 204.5 195.5 194.858 195.5 183V43C195.5 31.1416 185.858 21.5 174 21.5H145.5V3V1.5H144H124H122.5V3V21.5H85.5V3V1.5H84H64H62.5V3V21.5ZM172.52 181.5H35.5V54.5H172.502L172.52 181.5Z" fill="white" stroke="#393939" stroke-width="3"/>
<path d="M18.6602 241.961V282.074C18.6602 286.27 17.5469 289.527 15.3203 291.848C13.0938 294.191 9.88281 295.363 5.6875 295.363C3.92969 295.363 2.25391 295.164 0.660156 294.766V286.715C1.87891 286.926 2.94531 287.031 3.85938 287.031C6.92969 287.031 8.46484 285.402 8.46484 282.145V241.961H18.6602ZM7.65625 232.117C7.65625 230.594 8.16016 229.34 9.16797 228.355C10.1992 227.371 11.5938 226.879 13.3516 226.879C15.1094 226.879 16.4922 227.371 17.5 228.355C18.5312 229.34 19.0469 230.594 19.0469 232.117C19.0469 233.664 18.5195 234.93 17.4648 235.914C16.4336 236.898 15.0625 237.391 13.3516 237.391C11.6406 237.391 10.2578 236.898 9.20312 235.914C8.17188 234.93 7.65625 233.664 7.65625 232.117ZM35.957 241.961L36.2734 246.355C38.9922 242.957 42.6367 241.258 47.207 241.258C51.2383 241.258 54.2383 242.441 56.207 244.809C58.1758 247.176 59.1836 250.715 59.2305 255.426V280H49.0703V255.672C49.0703 253.516 48.6016 251.957 47.6641 250.996C46.7266 250.012 45.168 249.52 42.9883 249.52C40.1289 249.52 37.9844 250.738 36.5547 253.176V280H26.3945V241.961H35.957ZM65.3828 260.629C65.3828 256.855 66.1094 253.492 67.5625 250.539C69.0156 247.586 71.1016 245.301 73.8203 243.684C76.5625 242.066 79.7383 241.258 83.3477 241.258C88.4805 241.258 92.6641 242.828 95.8984 245.969C99.1562 249.109 100.973 253.375 101.348 258.766L101.418 261.367C101.418 267.203 99.7891 271.891 96.5312 275.43C93.2734 278.945 88.9023 280.703 83.418 280.703C77.9336 280.703 73.5508 278.945 70.2695 275.43C67.0117 271.914 65.3828 267.133 65.3828 261.086V260.629ZM75.543 261.367C75.543 264.977 76.2227 267.742 77.582 269.664C78.9414 271.562 80.8867 272.512 83.418 272.512C85.8789 272.512 87.8008 271.574 89.1836 269.699C90.5664 267.801 91.2578 264.777 91.2578 260.629C91.2578 257.09 90.5664 254.348 89.1836 252.402C87.8008 250.457 85.8555 249.484 83.3477 249.484C80.8633 249.484 78.9414 250.457 77.582 252.402C76.2227 254.324 75.543 257.312 75.543 261.367ZM119.84 232.609V241.961H126.344V249.414H119.84V268.398C119.84 269.805 120.109 270.812 120.648 271.422C121.188 272.031 122.219 272.336 123.742 272.336C124.867 272.336 125.863 272.254 126.73 272.09V279.789C124.738 280.398 122.688 280.703 120.578 280.703C113.453 280.703 109.82 277.105 109.68 269.91V249.414H104.125V241.961H109.68V232.609H119.84ZM149.512 280.703C143.934 280.703 139.387 278.992 135.871 275.57C132.379 272.148 130.633 267.59 130.633 261.895V260.91C130.633 257.09 131.371 253.68 132.848 250.68C134.324 247.656 136.41 245.336 139.105 243.719C141.824 242.078 144.918 241.258 148.387 241.258C153.59 241.258 157.68 242.898 160.656 246.18C163.656 249.461 165.156 254.113 165.156 260.137V264.285H140.934C141.262 266.77 142.246 268.762 143.887 270.262C145.551 271.762 147.648 272.512 150.18 272.512C154.094 272.512 157.152 271.094 159.355 268.258L164.348 273.848C162.824 276.004 160.762 277.691 158.16 278.91C155.559 280.105 152.676 280.703 149.512 280.703ZM148.352 249.484C146.336 249.484 144.695 250.164 143.43 251.523C142.188 252.883 141.391 254.828 141.039 257.359H155.172V256.551C155.125 254.301 154.516 252.566 153.344 251.348C152.172 250.105 150.508 249.484 148.352 249.484ZM191.559 269.488C191.559 268.246 190.938 267.273 189.695 266.57C188.477 265.844 186.508 265.199 183.789 264.637C174.742 262.738 170.219 258.895 170.219 253.105C170.219 249.73 171.613 246.918 174.402 244.668C177.215 242.395 180.883 241.258 185.406 241.258C190.234 241.258 194.09 242.395 196.973 244.668C199.879 246.941 201.332 249.895 201.332 253.527H191.172C191.172 252.074 190.703 250.879 189.766 249.941C188.828 248.98 187.363 248.5 185.371 248.5C183.66 248.5 182.336 248.887 181.398 249.66C180.461 250.434 179.992 251.418 179.992 252.613C179.992 253.738 180.52 254.652 181.574 255.355C182.652 256.035 184.457 256.633 186.988 257.148C189.52 257.641 191.652 258.203 193.387 258.836C198.754 260.805 201.438 264.215 201.438 269.066C201.438 272.535 199.949 275.348 196.973 277.504C193.996 279.637 190.152 280.703 185.441 280.703C182.254 280.703 179.418 280.141 176.934 279.016C174.473 277.867 172.539 276.309 171.133 274.34C169.727 272.348 169.023 270.203 169.023 267.906H178.656C178.75 269.711 179.418 271.094 180.66 272.055C181.902 273.016 183.566 273.496 185.652 273.496C187.598 273.496 189.062 273.133 190.047 272.406C191.055 271.656 191.559 270.684 191.559 269.488Z" fill="white"/>
<path d="M18.6602 241.961H20.1602V240.461H18.6602V241.961ZM15.3203 291.848L14.238 290.809L14.2328 290.815L15.3203 291.848ZM0.660156 294.766H-0.839844V295.937L0.296353 296.221L0.660156 294.766ZM0.660156 286.715L0.915968 285.237L-0.839844 284.933V286.715H0.660156ZM8.46484 241.961V240.461H6.96484V241.961H8.46484ZM9.16797 228.355L8.13226 227.27L8.12602 227.276L8.11986 227.282L9.16797 228.355ZM17.5 228.355L16.4519 229.429L16.4581 229.435L16.4643 229.441L17.5 228.355ZM17.4648 235.914L16.4414 234.817L16.4352 234.823L16.4291 234.829L17.4648 235.914ZM9.20312 235.914L8.16741 236.999L8.1735 237.005L8.17965 237.011L9.20312 235.914ZM17.1602 241.961V282.074H20.1602V241.961H17.1602ZM17.1602 282.074C17.1602 286.004 16.1225 288.845 14.238 290.809L16.4026 292.886C18.9712 290.209 20.1602 286.535 20.1602 282.074H17.1602ZM14.2328 290.815C12.3673 292.778 9.60037 293.863 5.6875 293.863V296.863C10.1653 296.863 13.8202 295.605 16.4078 292.881L14.2328 290.815ZM5.6875 293.863C4.0438 293.863 2.49073 293.677 1.02396 293.31L0.296353 296.221C2.01709 296.651 3.81558 296.863 5.6875 296.863V293.863ZM2.16016 294.766V286.715H-0.839844V294.766H2.16016ZM0.404344 288.193C1.68017 288.414 2.83564 288.531 3.85938 288.531V285.531C3.05499 285.531 2.07764 285.438 0.915968 285.237L0.404344 288.193ZM3.85938 288.531C5.64922 288.531 7.26113 288.052 8.40508 286.838C9.53331 285.641 9.96484 283.983 9.96484 282.145H6.96484C6.96484 283.564 6.6288 284.349 6.22187 284.781C5.83067 285.196 5.13984 285.531 3.85938 285.531V288.531ZM9.96484 282.145V241.961H6.96484V282.145H9.96484ZM8.46484 243.461H18.6602V240.461H8.46484V243.461ZM9.15625 232.117C9.15625 230.961 9.5223 230.106 10.2161 229.429L8.11986 227.282C6.79802 228.574 6.15625 230.226 6.15625 232.117H9.15625ZM10.2037 229.441C10.8942 228.781 11.8848 228.379 13.3516 228.379V225.379C11.3027 225.379 9.50424 225.961 8.13226 227.27L10.2037 229.441ZM13.3516 228.379C14.8199 228.379 15.7898 228.782 16.4519 229.429L18.5481 227.282C17.1946 225.96 15.3989 225.379 13.3516 225.379V228.379ZM16.4643 229.441C17.1771 230.121 17.5469 230.972 17.5469 232.117H20.5469C20.5469 230.215 19.8854 228.559 18.5357 227.27L16.4643 229.441ZM17.5469 232.117C17.5469 233.282 17.1684 234.139 16.4414 234.817L18.4883 237.011C19.8707 235.72 20.5469 234.046 20.5469 232.117H17.5469ZM16.4291 234.829C15.7311 235.495 14.7588 235.891 13.3516 235.891V238.891C15.3662 238.891 17.1361 238.302 18.5006 236.999L16.4291 234.829ZM13.3516 235.891C11.9455 235.891 10.9531 235.496 10.2266 234.817L8.17965 237.011C9.56251 238.301 11.3358 238.891 13.3516 238.891V235.891ZM10.2388 234.829C9.53101 234.153 9.15625 233.293 9.15625 232.117H6.15625C6.15625 234.035 6.81274 235.706 8.16741 236.999L10.2388 234.829ZM35.957 241.961L37.4532 241.853L37.3529 240.461H35.957V241.961ZM36.2734 246.355L34.7773 246.463L35.0523 250.283L37.4447 247.293L36.2734 246.355ZM59.2305 255.426H60.7305V255.418L60.7304 255.411L59.2305 255.426ZM59.2305 280V281.5H60.7305V280H59.2305ZM49.0703 280H47.5703V281.5H49.0703V280ZM47.6641 250.996L46.5779 252.031L46.5841 252.037L46.5904 252.044L47.6641 250.996ZM36.5547 253.176L35.2608 252.417L35.0547 252.768V253.176H36.5547ZM36.5547 280V281.5H38.0547V280H36.5547ZM26.3945 280H24.8945V281.5H26.3945V280ZM26.3945 241.961V240.461H24.8945V241.961H26.3945ZM34.4609 242.069L34.7773 246.463L37.7696 246.248L37.4532 241.853L34.4609 242.069ZM37.4447 247.293C39.8627 244.27 43.066 242.758 47.207 242.758V239.758C42.2074 239.758 38.1216 241.644 35.1021 245.418L37.4447 247.293ZM47.207 242.758C50.9404 242.758 53.4526 243.843 55.0538 245.768L57.3603 243.849C55.0239 241.04 51.5362 239.758 47.207 239.758V242.758ZM55.0538 245.768C56.7113 247.761 57.6854 250.901 57.7305 255.441L60.7304 255.411C60.6818 250.529 59.6402 246.591 57.3603 243.849L55.0538 245.768ZM57.7305 255.426V280H60.7305V255.426H57.7305ZM59.2305 278.5H49.0703V281.5H59.2305V278.5ZM50.5703 280V255.672H47.5703V280H50.5703ZM50.5703 255.672C50.5703 253.351 50.0742 251.318 48.7377 249.949L46.5904 252.044C47.1289 252.596 47.5703 253.68 47.5703 255.672H50.5703ZM48.7503 249.962C47.3985 248.542 45.3385 248.02 42.9883 248.02V251.02C44.9974 251.02 46.0547 251.481 46.5779 252.031L48.7503 249.962ZM42.9883 248.02C39.6045 248.02 36.9637 249.514 35.2608 252.417L37.8485 253.935C39.005 251.963 40.6533 251.02 42.9883 251.02V248.02ZM35.0547 253.176V280H38.0547V253.176H35.0547ZM36.5547 278.5H26.3945V281.5H36.5547V278.5ZM27.8945 280V241.961H24.8945V280H27.8945ZM26.3945 243.461H35.957V240.461H26.3945V243.461ZM73.8203 243.684L73.0583 242.392L73.0535 242.394L73.8203 243.684ZM95.8984 245.969L94.8535 247.045L94.8574 247.049L95.8984 245.969ZM101.348 258.766L102.847 258.725L102.846 258.693L102.844 258.662L101.348 258.766ZM101.418 261.367H102.918V261.347L102.917 261.327L101.418 261.367ZM96.5312 275.43L97.6315 276.449L97.6349 276.446L96.5312 275.43ZM70.2695 275.43L69.1693 276.449L69.1729 276.453L70.2695 275.43ZM77.582 269.664L76.3574 270.53L76.3624 270.537L77.582 269.664ZM89.1836 269.699L90.3908 270.59L90.3961 270.582L89.1836 269.699ZM77.582 252.402L78.8067 253.269L78.8116 253.262L77.582 252.402ZM66.8828 260.629C66.8828 257.051 67.5706 253.92 68.9084 251.201L66.2166 249.877C64.6482 253.064 63.8828 256.66 63.8828 260.629H66.8828ZM68.9084 251.201C70.2387 248.498 72.1285 246.435 74.5871 244.973L73.0535 242.394C70.0746 244.166 67.7925 246.674 66.2166 249.877L68.9084 251.201ZM74.5823 244.976C77.064 243.512 79.9697 242.758 83.3477 242.758V239.758C79.5068 239.758 76.061 240.621 73.0583 242.392L74.5823 244.976ZM83.3477 242.758C88.1488 242.758 91.9384 244.214 94.8535 247.045L96.9434 244.893C93.3897 241.442 88.8121 239.758 83.3477 239.758V242.758ZM94.8574 247.049C97.7977 249.883 99.4968 253.774 99.8513 258.87L102.844 258.662C102.449 252.976 100.515 248.336 96.9395 244.889L94.8574 247.049ZM99.8482 258.806L99.9185 261.408L102.917 261.327L102.847 258.725L99.8482 258.806ZM99.918 261.367C99.918 266.911 98.3786 271.208 95.4276 274.414L97.6349 276.446C101.2 272.573 102.918 267.495 102.918 261.367H99.918ZM95.431 274.41C92.4992 277.574 88.5509 279.203 83.418 279.203V282.203C89.2537 282.203 94.0477 280.317 97.6315 276.449L95.431 274.41ZM83.418 279.203C78.2852 279.203 74.3227 277.574 71.3661 274.406L69.1729 276.453C72.7789 280.317 77.582 282.203 83.418 282.203V279.203ZM71.3698 274.41C68.4313 271.239 66.8828 266.858 66.8828 261.086H63.8828C63.8828 267.408 65.5922 272.589 69.1693 276.449L71.3698 274.41ZM66.8828 261.086V260.629H63.8828V261.086H66.8828ZM74.043 261.367C74.043 265.132 74.7465 268.253 76.3574 270.53L78.8067 268.798C77.6989 267.232 77.043 264.821 77.043 261.367H74.043ZM76.3624 270.537C78.0301 272.866 80.4505 274.012 83.418 274.012V271.012C81.323 271.012 79.8527 270.259 78.8016 268.791L76.3624 270.537ZM83.418 274.012C86.3239 274.012 88.7071 272.873 90.3908 270.59L87.9764 268.809C86.8945 270.276 85.4339 271.012 83.418 271.012V274.012ZM90.3961 270.582C92.0616 268.296 92.7578 264.88 92.7578 260.629H89.7578C89.7578 264.675 89.0712 267.306 87.9711 268.816L90.3961 270.582ZM92.7578 260.629C92.7578 256.921 92.0375 253.828 90.4062 251.533L87.961 253.271C89.0953 254.867 89.7578 257.259 89.7578 260.629H92.7578ZM90.4062 251.533C88.7256 249.169 86.312 247.984 83.3477 247.984V250.984C85.3989 250.984 86.876 251.745 87.961 253.271L90.4062 251.533ZM83.3477 247.984C80.4006 247.984 78.0077 249.174 76.3525 251.543L78.8116 253.262C79.8751 251.74 81.326 250.984 83.3477 250.984V247.984ZM76.3574 251.536C74.7305 253.836 74.043 257.202 74.043 261.367H77.043C77.043 257.423 77.7148 254.812 78.8067 253.269L76.3574 251.536ZM119.84 232.609H121.34V231.109H119.84V232.609ZM119.84 241.961H118.34V243.461H119.84V241.961ZM126.344 241.961H127.844V240.461H126.344V241.961ZM126.344 249.414V250.914H127.844V249.414H126.344ZM119.84 249.414V247.914H118.34V249.414H119.84ZM126.73 272.09H128.23V270.279L126.452 270.616L126.73 272.09ZM126.73 279.789L127.169 281.223L128.23 280.899V279.789H126.73ZM109.68 269.91H108.18V269.925L108.18 269.939L109.68 269.91ZM109.68 249.414H111.18V247.914H109.68V249.414ZM104.125 249.414H102.625V250.914H104.125V249.414ZM104.125 241.961V240.461H102.625V241.961H104.125ZM109.68 241.961V243.461H111.18V241.961H109.68ZM109.68 232.609V231.109H108.18V232.609H109.68ZM118.34 232.609V241.961H121.34V232.609H118.34ZM119.84 243.461H126.344V240.461H119.84V243.461ZM124.844 241.961V249.414H127.844V241.961H124.844ZM126.344 247.914H119.84V250.914H126.344V247.914ZM118.34 249.414V268.398H121.34V249.414H118.34ZM118.34 268.398C118.34 269.927 118.62 271.392 119.525 272.416L121.772 270.428C121.599 270.233 121.34 269.682 121.34 268.398H118.34ZM119.525 272.416C120.516 273.536 122.131 273.836 123.742 273.836V270.836C122.306 270.836 121.859 270.526 121.772 270.428L119.525 272.416ZM123.742 273.836C124.937 273.836 126.029 273.749 127.009 273.564L126.452 270.616C125.697 270.759 124.798 270.836 123.742 270.836V273.836ZM125.23 272.09V279.789H128.23V272.09H125.23ZM126.292 278.355C124.444 278.92 122.541 279.203 120.578 279.203V282.203C122.834 282.203 125.033 281.877 127.169 281.223L126.292 278.355ZM120.578 279.203C117.253 279.203 115.006 278.365 113.565 276.939C112.122 275.51 111.245 273.249 111.179 269.881L108.18 269.939C108.255 273.767 109.264 276.902 111.454 279.071C113.647 281.242 116.778 282.203 120.578 282.203V279.203ZM111.18 269.91V249.414H108.18V269.91H111.18ZM109.68 247.914H104.125V250.914H109.68V247.914ZM105.625 249.414V241.961H102.625V249.414H105.625ZM104.125 243.461H109.68V240.461H104.125V243.461ZM111.18 241.961V232.609H108.18V241.961H111.18ZM109.68 234.109H119.84V231.109H109.68V234.109ZM135.871 275.57L134.821 276.642L134.825 276.645L135.871 275.57ZM132.848 250.68L134.193 251.342L134.196 251.338L132.848 250.68ZM139.105 243.719L139.877 245.005L139.88 245.003L139.105 243.719ZM160.656 246.18L159.545 247.188L159.549 247.192L160.656 246.18ZM165.156 264.285V265.785H166.656V264.285H165.156ZM140.934 264.285V262.785H139.222L139.447 264.482L140.934 264.285ZM143.887 270.262L142.875 271.369L142.882 271.376L143.887 270.262ZM159.355 268.258L160.474 267.259L159.275 265.916L158.171 267.338L159.355 268.258ZM164.348 273.848L165.573 274.713L166.261 273.739L165.466 272.848L164.348 273.848ZM158.16 278.91L158.786 280.273L158.796 280.268L158.16 278.91ZM143.43 251.523L142.332 250.501L142.322 250.512L143.43 251.523ZM141.039 257.359L139.553 257.153L139.316 258.859H141.039V257.359ZM155.172 257.359V258.859H156.672V257.359H155.172ZM155.172 256.551H156.672V256.535L156.672 256.52L155.172 256.551ZM153.344 251.348L152.253 252.377L152.258 252.382L152.263 252.387L153.344 251.348ZM149.512 279.203C144.266 279.203 140.114 277.607 136.917 274.495L134.825 276.645C138.66 280.378 143.601 282.203 149.512 282.203V279.203ZM136.921 274.499C133.764 271.406 132.133 267.259 132.133 261.895H129.133C129.133 267.921 130.993 272.891 134.821 276.642L136.921 274.499ZM132.133 261.895V260.91H129.133V261.895H132.133ZM132.133 260.91C132.133 257.287 132.832 254.108 134.193 251.342L131.502 250.017C129.91 253.251 129.133 256.893 129.133 260.91H132.133ZM134.196 251.338C135.554 248.556 137.448 246.462 139.877 245.005L138.334 242.433C135.372 244.21 133.094 246.757 131.5 250.021L134.196 251.338ZM139.88 245.003C142.344 243.516 145.165 242.758 148.387 242.758V239.758C144.671 239.758 141.304 240.64 138.33 242.434L139.88 245.003ZM148.387 242.758C153.247 242.758 156.903 244.275 159.545 247.188L161.767 245.172C158.456 241.522 153.932 239.758 148.387 239.758V242.758ZM159.549 247.192C162.218 250.111 163.656 254.353 163.656 260.137H166.656C166.656 253.873 165.094 248.811 161.763 245.168L159.549 247.192ZM163.656 260.137V264.285H166.656V260.137H163.656ZM165.156 262.785H140.934V265.785H165.156V262.785ZM139.447 264.482C139.815 267.269 140.94 269.6 142.875 271.369L144.899 269.155C143.552 267.923 142.709 266.271 142.421 264.089L139.447 264.482ZM142.882 271.376C144.858 273.157 147.329 274.012 150.18 274.012V271.012C147.968 271.012 146.243 270.367 144.891 269.148L142.882 271.376ZM150.18 274.012C154.509 274.012 158.025 272.416 160.54 269.178L158.171 267.338C156.28 269.772 153.678 271.012 150.18 271.012V274.012ZM158.237 269.257L163.229 274.847L165.466 272.848L160.474 267.259L158.237 269.257ZM163.123 272.982C161.762 274.907 159.911 276.433 157.524 277.552L158.796 280.268C161.612 278.949 163.886 277.1 165.573 274.713L163.123 272.982ZM157.534 277.547C155.149 278.643 152.483 279.203 149.512 279.203V282.203C152.869 282.203 155.969 281.568 158.786 280.273L157.534 277.547ZM148.352 247.984C145.959 247.984 143.907 248.809 142.332 250.501L144.528 252.546C145.484 251.519 146.713 250.984 148.352 250.984V247.984ZM142.322 250.512C140.81 252.167 139.931 254.434 139.553 257.153L142.525 257.566C142.85 255.222 143.565 253.599 144.537 252.535L142.322 250.512ZM141.039 258.859H155.172V255.859H141.039V258.859ZM156.672 257.359V256.551H153.672V257.359H156.672ZM156.672 256.52C156.619 254.02 155.935 251.878 154.425 250.308L152.263 252.387C153.097 253.255 153.631 254.581 153.672 256.582L156.672 256.52ZM154.435 250.318C152.909 248.701 150.806 247.984 148.352 247.984V250.984C150.21 250.984 151.435 251.51 152.253 252.377L154.435 250.318ZM189.695 266.57L188.927 267.859L188.942 267.867L188.956 267.876L189.695 266.57ZM183.789 264.637L183.481 266.105L183.485 266.106L183.789 264.637ZM174.402 244.668L175.344 245.835L175.345 245.835L174.402 244.668ZM196.973 244.668L196.044 245.846L196.048 245.849L196.973 244.668ZM201.332 253.527V255.027H202.832V253.527H201.332ZM191.172 253.527H189.672V255.027H191.172V253.527ZM189.766 249.941L188.692 250.989L188.698 250.996L188.705 251.002L189.766 249.941ZM181.574 255.355L180.742 256.604L180.758 256.614L180.774 256.624L181.574 255.355ZM186.988 257.148L186.689 258.618L186.702 258.621L186.988 257.148ZM193.387 258.836L193.903 257.428L193.901 257.427L193.387 258.836ZM196.973 277.504L197.846 278.723L197.853 278.719L196.973 277.504ZM176.934 279.016L176.299 280.375L176.307 280.379L176.315 280.382L176.934 279.016ZM171.133 274.34L169.907 275.205L169.912 275.212L171.133 274.34ZM169.023 267.906V266.406H167.523V267.906H169.023ZM178.656 267.906L180.154 267.828L180.08 266.406H178.656V267.906ZM190.047 272.406L190.938 273.613L190.942 273.61L190.047 272.406ZM193.059 269.488C193.059 267.615 192.062 266.187 190.434 265.265L188.956 267.876C189.813 268.36 190.059 268.877 190.059 269.488H193.059ZM190.463 265.282C189.022 264.422 186.85 263.738 184.093 263.168L183.485 266.106C186.166 266.66 187.931 267.265 188.927 267.859L190.463 265.282ZM184.097 263.169C179.695 262.245 176.576 260.881 174.583 259.187C172.647 257.542 171.719 255.547 171.719 253.105H168.719C168.719 256.453 170.053 259.275 172.64 261.473C175.17 263.623 178.837 265.13 183.481 266.105L184.097 263.169ZM171.719 253.105C171.719 250.215 172.883 247.821 175.344 245.835L173.461 243.501C170.344 246.015 168.719 249.246 168.719 253.105H171.719ZM175.345 245.835C177.83 243.826 181.138 242.758 185.406 242.758V239.758C180.628 239.758 176.6 240.963 173.459 243.501L175.345 245.835ZM185.406 242.758C190.004 242.758 193.499 243.839 196.044 245.846L197.902 243.49C194.681 240.95 190.465 239.758 185.406 239.758V242.758ZM196.048 245.849C198.598 247.844 199.832 250.364 199.832 253.527H202.832C202.832 249.425 201.16 246.039 197.897 243.487L196.048 245.849ZM201.332 252.027H191.172V255.027H201.332V252.027ZM192.672 253.527C192.672 251.718 192.073 250.128 190.826 248.881L188.705 251.002C189.333 251.63 189.672 252.43 189.672 253.527H192.672ZM190.839 248.894C189.508 247.529 187.573 247 185.371 247V250C187.154 250 188.149 250.432 188.692 250.989L190.839 248.894ZM185.371 247C183.452 247 181.741 247.433 180.444 248.503L182.353 250.817C182.931 250.341 183.869 250 185.371 250V247ZM180.444 248.503C179.168 249.556 178.492 250.962 178.492 252.613H181.492C181.492 251.874 181.754 251.311 182.353 250.817L180.444 248.503ZM178.492 252.613C178.492 254.31 179.332 255.664 180.742 256.604L182.406 254.107C181.707 253.641 181.492 253.167 181.492 252.613H178.492ZM180.774 256.624C182.094 257.456 184.124 258.096 186.689 258.618L187.288 255.679C184.79 255.17 183.211 254.614 182.374 254.087L180.774 256.624ZM186.702 258.621C189.184 259.103 191.235 259.648 192.873 260.245L193.901 257.427C192.07 256.759 189.855 256.178 187.275 255.676L186.702 258.621ZM192.87 260.244C195.374 261.162 197.123 262.37 198.246 263.798C199.355 265.207 199.938 266.935 199.938 269.066H202.938C202.938 266.346 202.178 263.943 200.604 261.942C199.043 259.96 196.767 258.478 193.903 257.428L192.87 260.244ZM199.938 269.066C199.938 272.022 198.707 274.395 196.093 276.289L197.853 278.719C201.191 276.3 202.938 273.049 202.938 269.066H199.938ZM196.099 276.285C193.442 278.189 189.929 279.203 185.441 279.203V282.203C190.376 282.203 194.551 281.085 197.846 278.723L196.099 276.285ZM185.441 279.203C182.432 279.203 179.812 278.673 177.552 277.649L176.315 280.382C179.024 281.609 182.076 282.203 185.441 282.203V279.203ZM177.568 277.656C175.312 276.604 173.592 275.202 172.353 273.468L169.912 275.212C171.486 277.415 173.633 279.131 176.299 280.375L177.568 277.656ZM172.358 273.475C171.119 271.719 170.523 269.874 170.523 267.906H167.523C167.523 270.533 168.334 272.976 169.907 275.205L172.358 273.475ZM169.023 269.406H178.656V266.406H169.023V269.406ZM177.158 267.984C177.271 270.152 178.101 271.971 179.742 273.241L181.578 270.868C180.735 270.216 180.229 269.27 180.154 267.828L177.158 267.984ZM179.742 273.241C181.322 274.463 183.343 274.996 185.652 274.996V271.996C183.79 271.996 182.483 271.568 181.578 270.868L179.742 273.241ZM185.652 274.996C187.743 274.996 189.583 274.613 190.938 273.613L189.156 271.199C188.542 271.653 187.452 271.996 185.652 271.996V274.996ZM190.942 273.61C192.308 272.593 193.059 271.185 193.059 269.488H190.059C190.059 270.182 189.802 270.719 189.151 271.203L190.942 273.61Z" fill="#393939"/>
</svg>
