<svg width="30" height="30" viewBox="0 0 24 24" fill="none" xmlns="http://www.w3.org/2000/svg">
<path d="M6.993 12C6.993 14.761 9.239 17.007 12 17.007C14.761 17.007 17.007 14.761 17.007 12C17.007 9.239 14.761 6.993 12 6.993C9.239 6.993 6.993 9.239 6.993 12ZM12 8.993C13.658 8.993 15.007 10.342 15.007 12C15.007 13.658 13.658 15.007 12 15.007C10.342 15.007 8.993 13.658 8.993 12C8.993 10.342 10.342 8.993 12 8.993ZM10.998 19H12.998V22H10.998V19ZM10.998 2H12.998V5H10.998V2ZM1.998 11H4.998V13H1.998V11ZM18.998 11H21.998V13H18.998V11ZM4.219 18.363L6.339 16.241L7.754 17.655L5.634 19.777L4.219 18.363ZM16.24 6.344L18.362 4.222L19.776 5.636L17.654 7.758L16.24 6.344ZM6.342 7.759L4.22 5.637L5.635 4.223L7.755 6.345L6.342 7.759ZM19.776 18.364L18.362 19.778L16.24 17.656L17.654 16.242L19.776 18.364Z" fill="white"/>
</svg>
